<svg version="1.1" id="Layer_1" xmlns="http://www.w3.org/2000/svg" xmlns:xlink="http://www.w3.org/1999/xlink" x="0px" y="0px"
	 width="100%" viewBox="0 0 561 521" enable-background="new 0 0 561 521" xml:space="preserve">
<path fill="#000000" opacity="1.000000" stroke="none" 
	d="
M562.000000,422.000000 
	C562.000000,455.326660 562.000000,488.653320 562.000000,521.984985 
	C375.044128,521.989990 188.088272,521.989990 1.066210,521.989990 
	C1.066210,348.412292 1.066210,174.824539 1.066210,1.118396 
	C187.883545,1.118396 374.767181,1.118396 562.000000,1.118396 
	C562.000000,137.689789 562.000000,274.379883 561.539795,411.534973 
	C558.169006,412.000000 555.258545,412.000000 552.328857,412.000000 
	C552.328857,415.584137 552.328857,418.746338 552.328857,422.000000 
	C555.771301,422.000000 558.885681,422.000000 562.000000,422.000000 
M372.885376,501.972687 
	C375.807526,501.972687 378.729675,501.972687 382.125427,501.972687 
	C382.125427,498.394012 382.125427,495.346558 382.125427,491.814972 
	C385.661591,491.814972 388.707764,491.814972 391.664032,491.814972 
	C391.664032,484.951019 391.664032,478.591583 391.664032,472.020874 
	C388.203217,472.020874 385.076721,472.020874 381.991516,471.100922 
	C381.991516,468.161469 381.991516,465.221985 381.991516,461.784485 
	C385.693542,461.784485 388.759033,461.784485 392.152466,461.784485 
	C392.152466,458.313293 392.152466,455.370667 392.152466,451.908142 
	C395.549286,451.908142 398.622833,451.908142 402.197266,451.908142 
	C402.197266,438.318237 402.197266,425.252136 402.197266,411.853882 
	C405.671478,411.853882 408.613770,411.853882 411.697815,411.853882 
	C411.697815,398.443085 411.697815,385.382996 411.697815,372.049744 
	C408.258789,372.049744 405.118896,372.049744 401.995819,371.124298 
	C401.995819,368.196747 401.995819,365.269196 401.995819,361.859314 
	C405.608704,361.859314 408.667633,361.859314 411.668579,361.859314 
	C411.668579,354.981049 411.668579,348.613403 411.668579,342.015839 
	C408.208221,342.015839 405.077362,342.015839 401.994751,341.095245 
	C401.994751,338.155396 401.994751,335.215546 401.994751,331.871216 
	C405.590820,331.871216 408.666992,331.871216 411.720428,331.871216 
	C411.720428,321.712524 411.720428,311.983002 411.720428,301.837646 
	C408.373901,301.837646 405.298706,301.837646 401.818359,301.837646 
	C401.818359,298.345673 401.818359,295.267670 401.818359,292.164856 
	C398.257843,292.164856 395.117279,292.164856 391.070557,292.013458 
	C388.133087,292.013458 385.195618,292.013458 381.879028,292.013458 
	C381.879028,288.417389 381.879028,285.339661 381.879028,281.893494 
	C371.750488,281.893494 362.016571,281.893494 351.895752,281.893494 
	C351.895752,278.435181 351.895752,275.357880 351.895752,272.201721 
	C321.796783,272.201721 292.096405,272.201721 261.998199,272.201721 
	C261.998199,275.465485 261.998199,278.538025 261.998199,282.167816 
	C251.758591,282.167816 241.902557,282.167816 231.846497,282.167816 
	C231.846497,285.687225 231.846497,288.637817 231.846497,292.083984 
	C225.018509,292.083984 218.409927,292.083984 211.982315,291.161652 
	C211.982315,288.213562 211.982315,285.265472 211.982315,281.909241 
	C215.549881,281.909241 218.629990,281.909241 221.728745,281.909241 
	C221.728745,271.743073 221.728745,262.007721 221.728745,251.852264 
	C218.386002,251.852264 215.306717,251.852264 211.826904,251.852264 
	C211.826904,248.356155 211.826904,245.276459 211.826904,242.164856 
	C208.262024,242.164856 205.119385,242.164856 201.070572,242.013428 
	C198.130493,242.013428 195.190414,242.013428 191.867188,242.013428 
	C191.867188,238.406479 191.867188,235.326599 191.867188,231.866196 
	C181.724731,231.866196 171.981400,231.866196 161.849258,231.866196 
	C161.849258,228.392563 161.849258,225.309296 161.849258,222.262207 
	C131.719070,222.262207 101.992149,222.262207 71.864288,222.262207 
	C71.864288,225.594589 71.864288,228.673386 71.864288,232.133362 
	C61.725189,232.133362 51.981880,232.133362 41.849770,232.133362 
	C41.849770,235.606995 41.849770,238.690399 41.849770,242.149200 
	C35.041702,242.149200 28.630470,242.149200 21.833218,242.149200 
	C21.833218,245.632233 21.833218,248.712708 21.833218,252.177124 
	C18.360756,252.177124 15.284074,252.177124 12.289530,252.177124 
	C12.289530,262.322968 12.289530,272.061035 12.289530,282.188110 
	C15.658084,282.188110 18.742922,282.188110 22.055244,282.188110 
	C22.055244,285.728790 22.055244,288.875275 21.131699,292.002960 
	C18.198618,292.002960 15.265537,292.002960 12.282421,292.002960 
	C12.282421,298.924622 12.282421,305.305603 12.282421,312.145569 
	C15.623363,312.145569 18.686405,312.145569 22.046986,312.145569 
	C22.046986,315.739685 22.046986,318.872589 21.121550,322.000610 
	C18.185577,322.000610 15.249604,322.000610 12.254185,322.000610 
	C12.254185,335.571411 12.254185,348.614868 12.254185,362.101105 
	C15.565845,362.101105 18.636572,362.101105 22.102983,362.101105 
	C22.102983,375.588043 22.102983,388.636749 22.102983,402.116699 
	C25.586847,402.116699 28.654169,402.116699 32.150673,402.116699 
	C32.150673,405.622437 32.150673,408.694092 32.150673,412.183350 
	C35.662254,412.183350 38.733955,412.183350 42.005543,412.183350 
	C42.005543,415.762817 42.005543,418.904907 41.091145,422.006409 
	C38.154346,422.006409 35.217548,422.006409 32.332657,422.006409 
	C32.332657,428.999603 32.332657,435.399597 32.332657,442.266113 
	C35.736752,442.266113 38.808800,442.266113 42.162228,442.266113 
	C42.162228,445.690643 42.162228,448.637299 42.162228,452.059021 
	C52.194866,452.059021 61.933887,452.059021 72.141899,452.059021 
	C72.141899,455.600922 72.141899,458.677704 72.141899,461.838318 
	C95.761894,461.838318 118.899635,461.838318 142.959534,461.984100 
	C149.219086,461.984100 155.478638,461.984100 162.146667,461.984100 
	C162.146667,458.379059 162.146667,455.301575 162.146667,451.838470 
	C165.694687,451.838470 168.828018,451.838470 172.864456,451.977753 
	C175.900604,451.930511 178.936737,451.883240 182.885452,451.972687 
	C185.807587,451.972687 188.729721,451.972687 192.125458,451.972687 
	C192.125458,448.393951 192.125458,445.346497 192.125458,441.814880 
	C195.661621,441.814880 198.707779,441.814880 201.664001,441.814880 
	C201.664001,434.950958 201.664001,428.591522 201.664001,422.020905 
	C198.204376,422.020905 195.077286,422.020905 191.991684,421.081818 
	C191.991684,394.818451 191.991684,368.555084 191.991684,342.157471 
	C188.229050,342.157471 185.088852,342.157471 181.027649,342.017914 
	C174.685287,342.031097 168.342911,342.044281 161.999451,341.131256 
	C161.999451,338.117218 161.999451,335.103149 161.999451,331.838440 
	C165.789642,331.838440 168.875595,331.838440 172.894287,331.978302 
	C179.157425,331.978302 185.420563,331.978302 191.689529,331.978302 
	C191.689529,325.027618 191.689529,318.632538 191.689529,312.161499 
	C188.240341,312.161499 185.100769,312.161499 181.039368,312.015869 
	C174.679626,312.033783 168.319885,312.051697 161.996063,311.141479 
	C161.996063,308.199341 161.996063,305.257172 161.996063,301.915161 
	C172.223587,301.915161 181.960312,301.915161 192.108704,301.915161 
	C192.108704,298.429810 192.108704,295.353546 192.108704,291.961060 
	C198.991898,291.961060 205.454163,291.961060 211.993195,292.883362 
	C211.993195,295.815033 211.993195,298.746735 211.993195,302.043243 
	C208.491241,302.043243 205.427399,302.043243 202.327393,302.043243 
	C202.327393,312.246613 202.327393,322.063202 202.327393,332.247864 
	C205.724655,332.247864 208.795807,332.247864 212.055145,332.247864 
	C212.055145,335.753937 212.055145,338.887848 211.131622,342.002960 
	C208.198547,342.002960 205.265488,342.002960 202.282425,342.002960 
	C202.282425,348.924652 202.282425,355.305634 202.282425,362.145569 
	C205.620331,362.145569 208.691452,362.145569 212.046982,362.145569 
	C212.046982,365.739716 212.046982,368.872620 211.121521,372.000610 
	C208.185562,372.000610 205.249603,372.000610 202.254181,372.000610 
	C202.254181,385.571411 202.254181,398.614868 202.254181,412.101105 
	C205.561523,412.101105 208.635681,412.101105 212.102997,412.101105 
	C212.102997,425.588318 212.102997,438.636505 212.102997,452.116669 
	C215.586868,452.116669 218.654190,452.116669 222.150681,452.116669 
	C222.150681,455.622406 222.150681,458.694061 222.150681,462.183350 
	C225.662247,462.183350 228.733948,462.183350 232.005508,462.183350 
	C232.005508,465.762817 232.005508,468.904907 231.091110,472.006409 
	C228.154297,472.006409 225.217484,472.006409 222.332703,472.006409 
	C222.332703,478.999664 222.332703,485.399658 222.332703,492.266174 
	C225.736847,492.266174 228.808899,492.266174 232.162338,492.266174 
	C232.162338,495.690735 232.162338,498.637390 232.162338,502.059082 
	C242.194290,502.059082 251.934845,502.059082 262.141968,502.059082 
	C262.141968,505.604950 262.141968,508.676880 262.141968,511.838318 
	C285.761871,511.838318 308.899597,511.838318 332.959534,511.984100 
	C339.219086,511.984100 345.478638,511.984100 352.146637,511.984100 
	C352.146637,508.379059 352.146637,505.301575 352.146637,501.838470 
	C355.694641,501.838470 358.827972,501.838470 362.864441,501.977722 
	C365.900574,501.930481 368.936707,501.883209 372.885376,501.972687 
M101.039368,101.991386 
	C98.127190,101.991386 95.215019,101.991386 91.971420,101.991386 
	C91.971420,105.501747 91.971420,108.555573 91.971420,112.120132 
	C88.457375,112.120132 85.274002,112.120132 82.165741,112.120132 
	C82.165741,115.755783 82.165741,118.870567 82.014061,122.885689 
	C82.064621,125.928734 82.115181,128.971786 82.011711,132.939026 
	C82.011711,149.207947 82.011711,165.476868 82.011711,182.137177 
	C95.608925,182.137177 108.689453,182.137177 122.151161,182.137177 
	C122.151161,185.608749 122.151161,188.689407 122.151161,192.146194 
	C135.619156,192.146194 148.700195,192.146194 162.162476,192.146194 
	C162.162476,195.620178 162.162476,198.700272 162.162476,202.156738 
	C175.630692,202.156738 188.711853,202.156738 202.173813,202.156738 
	C202.173813,205.628952 202.173813,208.713394 202.173813,212.167297 
	C215.642227,212.167297 228.723129,212.167297 242.185150,212.167297 
	C242.185150,215.642838 242.185150,218.721970 242.185150,222.177856 
	C255.653763,222.177856 268.734833,222.177856 282.196472,222.177856 
	C282.196472,225.653992 282.196472,228.732712 282.196472,232.188416 
	C295.665314,232.188416 308.746399,232.188416 322.207764,232.188416 
	C322.207764,235.664978 322.207764,238.743332 322.207764,242.198975 
	C335.676849,242.198975 348.757965,242.198975 362.219116,242.198975 
	C362.219116,245.674149 362.219116,248.757187 362.219116,251.690918 
	C372.353607,251.690918 382.093628,251.690918 392.216675,251.690918 
	C392.216675,231.635254 392.216675,211.886490 392.216675,192.079651 
	C395.761444,192.079651 398.915100,192.079651 402.000031,192.006317 
	C402.000031,192.006317 401.926819,191.937424 401.994812,192.859238 
	C402.051788,196.234604 402.108765,199.609970 402.014435,203.814240 
	C402.311798,206.183685 402.609161,208.553146 402.148560,211.367218 
	C402.148560,228.193726 402.148560,245.020248 402.148560,262.067841 
	C415.713715,262.067841 428.794220,262.067841 441.987457,262.973053 
	C441.987457,265.906769 441.987457,268.840515 441.987457,272.174072 
	C455.654388,272.174072 468.727386,272.174072 482.218079,272.174072 
	C482.218079,275.675690 482.218079,278.753296 482.218079,282.232056 
	C495.716949,282.232056 508.789703,282.232056 522.278809,282.232056 
	C522.278809,285.735565 522.278809,288.809692 522.278809,291.630371 
	C529.115479,291.630371 535.518127,291.630371 541.792969,291.630371 
	C541.792969,281.644135 541.792969,272.028534 541.792969,261.987366 
	C538.531250,261.987366 535.448914,261.987366 531.958252,261.987366 
	C531.958252,251.825836 531.958252,242.084427 531.958252,231.923187 
	C528.462402,231.923187 525.383545,231.923187 521.900757,231.923187 
	C521.900757,225.090073 521.900757,218.676147 521.900757,211.874374 
	C518.338989,211.874374 515.203308,211.874374 512.004761,210.954987 
	C512.004761,204.695587 512.004761,198.436172 512.004761,191.809601 
	C508.345825,191.809601 505.262146,191.809601 502.283386,191.809601 
	C502.283386,188.344757 502.283386,185.271912 502.283386,181.829758 
	C505.643738,181.829758 508.730743,181.829758 511.838379,181.829758 
	C511.838379,178.311142 511.838379,175.174789 511.983704,171.123993 
	C511.983704,168.181885 511.983704,165.239761 511.983704,161.891266 
	C515.570190,161.891266 518.646729,161.891266 521.754883,161.891266 
	C521.754883,135.091141 521.754883,108.719650 521.754883,82.251602 
	C515.111206,82.251602 508.715271,82.251602 501.895782,82.251602 
	C501.895782,85.566200 501.895782,88.641708 501.895782,92.113678 
	C495.069550,92.113678 488.660706,92.113678 481.874451,92.113678 
	C481.874451,95.665771 481.874451,98.799049 480.954773,101.995255 
	C468.028168,101.995255 455.101593,101.995255 441.793579,101.995255 
	C441.793579,98.336838 441.793579,95.251801 441.793579,91.806442 
	C434.994080,91.806442 428.579895,91.806442 421.791321,91.806442 
	C421.791321,88.335648 421.791321,85.253159 421.791321,81.806107 
	C411.660034,81.806107 401.914154,81.806107 391.792694,81.806107 
	C391.792694,78.334999 391.792694,75.257660 391.792694,71.807388 
	C381.661469,71.807388 371.915588,71.807388 361.794098,71.807388 
	C361.794098,68.336281 361.794098,65.258858 361.794098,61.806908 
	C354.994629,61.806908 348.580505,61.806908 341.791870,61.806908 
	C341.791870,58.334114 341.791870,55.256760 341.791870,51.804886 
	C334.992218,51.804886 328.577759,51.804886 321.793030,51.804886 
	C321.793030,48.328136 321.793030,45.246864 321.793030,41.795540 
	C318.327179,41.795540 315.245239,41.795540 311.794495,41.795540 
	C311.794495,38.324993 311.794495,35.244122 311.794495,31.793436 
	C308.323883,31.793436 305.243042,31.793436 301.792358,31.793436 
	C301.792358,28.322817 301.792358,25.242002 301.792358,21.791317 
	C298.322571,21.791317 295.241180,21.791317 291.790283,21.791317 
	C291.790283,18.320648 291.790283,15.239885 291.790283,12.300523 
	C288.313873,12.300523 285.236725,12.300523 281.788147,12.300523 
	C281.788147,15.681510 281.788147,18.762228 281.788147,22.212910 
	C278.317413,22.212910 275.236694,22.212910 271.786011,22.212910 
	C271.786011,25.683668 271.786011,28.764345 271.786011,32.215080 
	C268.315674,32.215080 265.234985,32.215080 261.780273,32.215080 
	C261.780273,35.681828 261.780273,38.758362 261.780273,42.209457 
	C254.976166,42.209457 248.560303,42.209457 241.774323,42.209457 
	C241.774323,45.682514 241.774323,48.759773 241.774323,52.211536 
	C234.973907,52.211536 228.557632,52.211536 221.772110,52.211536 
	C221.772110,55.684578 221.772110,58.761894 221.772110,62.213600 
	C214.971588,62.213600 208.555283,62.213600 201.769897,62.213600 
	C201.769897,65.686638 201.769897,68.764030 201.769897,72.215607 
	C194.969193,72.215607 188.552902,72.215607 181.771439,72.215607 
	C181.771439,75.693008 181.771439,78.775368 181.771439,82.225723 
	C178.304489,82.225723 175.223816,82.225723 171.773239,82.225723 
	C171.773239,85.696556 171.773239,88.777245 171.773239,92.227806 
	C168.302399,92.227806 165.221680,92.227806 161.771088,92.227806 
	C161.771088,95.698608 161.771088,98.779312 161.771088,102.233734 
	C158.304443,102.233734 155.220963,102.233734 151.920120,102.233734 
	C151.920120,109.107475 151.920120,115.588173 151.993454,122.000145 
	C151.993454,122.000145 152.062286,121.926926 151.135880,121.994728 
	C148.200699,121.994728 145.265518,121.994728 141.983383,121.994728 
	C141.983383,115.180969 141.983383,108.785538 141.983383,101.853210 
	C138.443604,101.853210 135.249008,101.853210 131.702148,101.853210 
	C131.702148,98.233803 131.702148,95.167053 131.702148,92.279472 
	C121.607658,92.279472 111.894814,92.279472 101.880714,92.279472 
	C101.880714,95.687157 101.880714,98.817116 101.968361,101.968117 
	C101.968361,101.968117 101.947296,101.880478 101.039368,101.991386 
M448.419647,362.000000 
	C456.567383,361.134613 449.364075,355.197235 452.808350,352.335693 
	C448.423828,352.335693 445.261780,352.335693 442.296326,352.335693 
	C442.296326,355.728149 442.296326,358.780884 442.296326,362.000000 
	C444.219604,362.000000 445.847748,362.000000 448.419647,362.000000 
z"/>
<path fill="#FFFFFF" opacity="1.000000" stroke="none" 
	d="
M562.000000,421.545898 
	C558.885681,422.000000 555.771301,422.000000 552.328857,422.000000 
	C552.328857,418.746338 552.328857,415.584137 552.328857,412.000000 
	C555.258545,412.000000 558.169006,412.000000 561.539795,412.000000 
	C562.000000,415.030609 562.000000,418.061188 562.000000,421.545898 
z"/>
<path fill="#FFFFFF" opacity="1.000000" stroke="none" 
	d="
M402.165771,202.985321 
	C402.108765,199.609970 402.051788,196.234604 402.424744,192.427307 
	C405.869049,191.995392 408.883484,191.995392 412.127777,191.995392 
	C412.127777,188.275421 412.127777,185.197662 412.569458,182.064270 
	C415.989868,181.965927 418.968567,181.923203 421.963562,182.346527 
	C422.045715,192.987549 422.046417,192.992264 430.979553,191.680832 
	C431.242767,191.642197 431.455597,191.260391 431.690613,191.037201 
	C432.590485,182.057343 432.590485,182.058060 423.854614,181.993790 
	C423.196594,181.988937 422.538666,181.963135 421.936066,181.497131 
	C421.971283,178.004852 421.951141,174.962509 422.402679,171.957260 
	C432.603790,171.971771 442.333191,171.949188 452.033569,172.390549 
	C452.004578,175.868973 452.004578,178.883453 452.004578,182.127686 
	C455.724731,182.127686 458.802551,182.127686 461.935974,182.585205 
	C461.991577,189.234070 461.991577,195.425400 461.991577,201.931168 
	C465.611664,201.931168 468.845795,201.931168 472.042786,202.402710 
	C472.005646,209.127686 472.005646,215.381119 472.005646,221.812866 
	C475.468384,221.812866 478.527252,221.812866 481.680115,221.812866 
	C481.680115,215.118042 481.680115,208.610428 481.680115,202.073105 
	C478.219482,202.073105 475.078613,202.073105 471.966614,201.600861 
	C471.995514,194.863129 471.995514,188.597656 471.995514,182.279816 
	C468.288269,182.279816 465.016937,182.279816 461.863098,181.791962 
	C461.980530,178.233124 461.980530,175.162170 461.980530,172.068558 
	C458.199585,172.068558 455.059998,172.068558 451.957336,171.605164 
	C451.994263,168.208649 451.994263,165.275513 451.994263,162.321625 
	C441.748047,162.321625 431.923981,162.321625 422.072998,162.321625 
	C422.072998,165.782852 422.072998,168.922623 421.609009,172.033478 
	C418.204010,172.004578 415.263000,172.004578 412.279877,172.004578 
	C412.279877,175.710022 412.279877,178.982346 411.792053,182.137070 
	C408.233215,182.019485 405.162201,182.019485 402.068756,182.019485 
	C402.068756,185.800385 402.068756,188.940018 402.068756,192.079651 
	C398.915100,192.079651 395.761444,192.079651 392.216675,192.079651 
	C392.216675,211.886490 392.216675,231.635254 392.216675,251.690918 
	C382.093628,251.690918 372.353607,251.690918 362.219116,251.690918 
	C362.219116,248.757187 362.219116,245.674149 362.219116,242.198975 
	C348.757965,242.198975 335.676849,242.198975 322.207764,242.198975 
	C322.207764,238.743332 322.207764,235.664978 322.207764,232.188416 
	C308.746399,232.188416 295.665314,232.188416 282.196472,232.188416 
	C282.196472,228.732712 282.196472,225.653992 282.196472,222.177856 
	C268.734833,222.177856 255.653763,222.177856 242.185150,222.177856 
	C242.185150,218.721970 242.185150,215.642838 242.185150,212.167297 
	C228.723129,212.167297 215.642227,212.167297 202.173813,212.167297 
	C202.173813,208.713394 202.173813,205.628952 202.173813,202.156738 
	C188.711853,202.156738 175.630692,202.156738 162.162476,202.156738 
	C162.162476,198.700272 162.162476,195.620178 162.162476,192.146194 
	C148.700195,192.146194 135.619156,192.146194 122.151161,192.146194 
	C122.151161,188.689407 122.151161,185.608749 122.151161,182.137177 
	C108.689453,182.137177 95.608925,182.137177 82.011711,182.137177 
	C82.011711,165.476868 82.011711,149.207947 82.536041,132.472351 
	C85.835442,132.005676 88.610512,132.005676 91.550858,132.005676 
	C91.550858,128.355789 91.550858,125.342789 91.550858,121.985352 
	C88.124741,121.985352 85.145241,121.985352 82.165741,121.985352 
	C82.165741,118.870567 82.165741,115.755783 82.165741,112.120132 
	C85.274002,112.120132 88.457375,112.120132 91.971420,112.120132 
	C91.971420,108.555573 91.971420,105.501747 91.971420,101.991386 
	C95.215019,101.991386 98.127190,101.991386 101.509583,102.401978 
	C102.045753,112.987511 102.046448,112.992218 110.979561,111.680855 
	C111.242783,111.642204 111.455612,111.260391 111.690651,111.037201 
	C112.590469,102.057343 112.590462,102.058083 103.854614,101.993843 
	C103.196571,101.988998 102.538681,101.963158 101.880714,101.947083 
	C101.880714,98.817116 101.880714,95.687157 101.880714,92.279472 
	C111.894814,92.279472 121.607658,92.279472 131.702148,92.279472 
	C131.702148,95.167053 131.702148,98.233803 131.702148,101.853210 
	C135.249008,101.853210 138.443604,101.853210 141.983383,101.853210 
	C141.983383,108.785538 141.983383,115.180969 141.983383,121.994728 
	C145.265518,121.994728 148.200699,121.994728 151.570190,122.433067 
	C152.004486,129.126724 152.004486,135.382050 152.004486,141.812485 
	C155.471939,141.812485 158.531509,141.812485 161.675262,141.812485 
	C161.675262,135.111038 161.675262,128.601730 161.675262,122.068863 
	C158.207245,122.068863 155.063690,122.068863 151.920120,122.068863 
	C151.920120,115.588173 151.920120,109.107475 151.920120,102.233734 
	C155.220963,102.233734 158.304443,102.233734 161.771088,102.233734 
	C161.771088,98.779312 161.771088,95.698608 161.771088,92.227806 
	C165.221680,92.227806 168.302399,92.227806 171.773239,92.227806 
	C171.773239,88.777245 171.773239,85.696556 171.773239,82.225723 
	C175.223816,82.225723 178.304489,82.225723 181.771439,82.225723 
	C181.771439,78.775368 181.771439,75.693008 181.771439,72.215607 
	C188.552902,72.215607 194.969193,72.215607 201.769897,72.215607 
	C201.769897,68.764030 201.769897,65.686638 201.769897,62.213600 
	C208.555283,62.213600 214.971588,62.213600 221.772110,62.213600 
	C221.772110,58.761894 221.772110,55.684578 221.772110,52.211536 
	C228.557632,52.211536 234.973907,52.211536 241.774323,52.211536 
	C241.774323,48.759773 241.774323,45.682514 241.774323,42.209457 
	C248.560303,42.209457 254.976166,42.209457 261.780273,42.209457 
	C261.780273,38.758362 261.780273,35.681828 261.780273,32.215080 
	C265.234985,32.215080 268.315674,32.215080 271.786011,32.215080 
	C271.786011,28.764345 271.786011,25.683668 271.786011,22.212910 
	C275.236694,22.212910 278.317413,22.212910 281.788147,22.212910 
	C281.788147,18.762228 281.788147,15.681510 281.788147,12.300523 
	C285.236725,12.300523 288.313873,12.300523 291.790283,12.300523 
	C291.790283,15.239885 291.790283,18.320648 291.790283,21.791317 
	C295.241180,21.791317 298.322571,21.791317 301.792358,21.791317 
	C301.792358,25.242002 301.792358,28.322817 301.792358,31.793436 
	C305.243042,31.793436 308.323883,31.793436 311.794495,31.793436 
	C311.794495,35.244122 311.794495,38.324993 311.794495,41.795540 
	C315.245239,41.795540 318.327179,41.795540 321.793030,41.795540 
	C321.793030,45.246864 321.793030,48.328136 321.793030,51.804886 
	C328.577759,51.804886 334.992218,51.804886 341.791870,51.804886 
	C341.791870,55.256760 341.791870,58.334114 341.791870,61.806908 
	C348.580505,61.806908 354.994629,61.806908 361.794098,61.806908 
	C361.794098,65.258858 361.794098,68.336281 361.794098,71.807388 
	C371.915588,71.807388 381.661469,71.807388 391.792694,71.807388 
	C391.792694,75.257660 391.792694,78.334999 391.792694,81.806107 
	C401.914154,81.806107 411.660034,81.806107 421.791321,81.806107 
	C421.791321,85.253159 421.791321,88.335648 421.791321,91.806442 
	C428.579895,91.806442 434.994080,91.806442 441.793579,91.806442 
	C441.793579,95.251801 441.793579,98.336838 441.793579,101.995255 
	C455.101593,101.995255 468.028168,101.995255 481.880310,101.985031 
	C485.730011,101.974800 488.654205,101.974800 492.135773,101.974800 
	C492.135773,109.028069 492.135773,115.264252 492.135773,121.692993 
	C495.613342,121.915199 498.527039,122.101379 502.149963,122.332870 
	C502.149963,138.989075 502.149963,155.337753 502.149963,172.038437 
	C505.869080,172.038437 508.853729,172.038437 511.838379,172.038437 
	C511.838379,175.174789 511.838379,178.311142 511.838379,181.829758 
	C508.730743,181.829758 505.643738,181.829758 502.283386,181.829758 
	C502.283386,185.271912 502.283386,188.344757 502.283386,191.809601 
	C505.262146,191.809601 508.345825,191.809601 512.004761,191.809601 
	C512.004761,198.436172 512.004761,204.695587 512.014893,211.880234 
	C512.025085,215.732361 512.025085,218.659241 512.025085,221.693787 
	C508.301147,221.934265 505.386993,222.122452 501.921173,222.346268 
	C501.921173,228.964096 501.921173,235.205185 501.921173,241.660233 
	C498.320862,241.928131 495.283051,242.154160 492.231079,242.381256 
	C492.031952,245.870178 491.865784,248.782211 491.695923,251.758789 
	C488.205688,251.958191 485.290558,252.124741 482.276276,252.296951 
	C482.063934,255.723511 481.883331,258.637573 481.670746,262.067841 
	C468.121185,262.067841 454.997955,262.067841 441.874725,262.067841 
	C428.794220,262.067841 415.713715,262.067841 402.148560,262.067841 
	C402.148560,245.020248 402.148560,228.193726 402.910889,211.173676 
	C404.162140,211.038132 404.674164,211.219452 405.136047,211.132996 
	C407.239746,210.739304 410.034149,210.917389 411.212372,209.634064 
	C412.249756,208.504135 412.306732,204.867783 411.290039,203.863220 
	C410.007111,202.595673 407.206360,202.778778 405.038055,202.533035 
	C404.109619,202.427811 403.124878,202.819443 402.165771,202.985321 
M331.995148,170.971664 
	C331.995148,168.074905 331.995148,165.178146 331.995148,162.360474 
	C328.357483,162.360474 325.205261,162.360474 322.056641,162.360474 
	C322.056641,165.834442 322.056641,168.947937 321.114319,172.004333 
	C314.764374,172.051620 308.414429,172.098892 302.022552,171.211090 
	C301.992462,168.098892 301.962372,164.986710 301.995148,160.971664 
	C301.995148,158.074905 301.995148,155.178146 301.995148,152.360474 
	C298.357483,152.360474 295.205261,152.360474 292.056641,152.360474 
	C292.056641,155.834442 292.056641,158.947937 291.113953,162.004364 
	C284.657501,162.096298 278.201050,162.188248 271.980316,161.323639 
	C271.963989,158.257141 271.947693,155.190628 271.975800,151.193619 
	C271.975800,148.266190 271.975800,145.338760 271.975800,142.369080 
	C268.290131,142.369080 265.388062,142.369080 262.068787,142.369080 
	C262.068787,145.858902 262.068787,148.991409 262.004944,153.026596 
	C262.004944,155.946457 262.004944,158.866318 262.004944,162.128174 
	C265.646149,162.128174 268.762878,162.128174 271.991364,163.026764 
	C271.991364,165.944504 271.991364,168.862259 271.991364,171.932327 
	C278.991150,171.932327 285.432831,171.932327 292.804413,171.974823 
	C295.913513,172.009033 299.022583,172.043259 302.009491,172.981293 
	C302.009491,175.907089 302.009491,178.832901 302.009491,181.932327 
	C308.975922,181.932327 315.425201,181.932327 322.805481,181.974792 
	C325.723480,181.974792 328.641479,181.974792 331.932281,181.974792 
	C331.932281,178.114380 331.932281,174.994446 331.995148,170.971664 
M224.676483,132.000259 
	C223.784836,132.778214 222.151794,133.527512 222.120438,134.338715 
	C221.897324,140.110489 222.001541,145.894913 222.001541,151.769180 
	C228.863037,151.769180 235.267120,151.769180 241.766815,151.769180 
	C241.766815,145.132050 241.766815,138.727921 241.766815,132.000000 
	C236.243500,132.000000 230.946732,132.000000 224.676483,132.000259 
M111.513245,132.000000 
	C108.445923,132.000000 105.378609,132.000000 102.425308,132.000000 
	C102.425308,139.163345 102.425308,145.384247 102.425308,151.616638 
	C109.075745,151.616638 115.293465,151.616638 121.658554,151.616638 
	C121.658554,145.011398 121.658554,138.794159 121.658554,132.000000 
	C118.379234,132.000000 115.432838,132.000000 111.513245,132.000000 
M362.057770,182.731644 
	C362.057770,189.020462 362.057770,195.309280 362.057770,201.795654 
	C368.788544,201.795654 375.192902,201.795654 381.798798,201.795654 
	C381.798798,195.204880 381.798798,188.800537 381.798798,182.056305 
	C375.322693,182.056305 369.035278,182.056305 362.057770,182.731644 
M430.533691,212.000000 
	C427.798126,212.000000 425.062592,212.000000 422.418152,212.000000 
	C422.418152,219.149277 422.418152,225.369293 422.418152,231.624374 
	C429.060516,231.624374 435.277832,231.624374 441.666931,231.624374 
	C441.666931,225.028625 441.666931,218.811600 441.666931,212.000000 
	C438.073517,212.000000 434.793549,212.000000 430.533691,212.000000 
M127.463142,121.999702 
	C128.880157,121.865196 130.297165,121.730690 131.578842,121.609024 
	C131.578842,118.175705 131.578842,115.287010 131.578842,112.384232 
	C128.259109,112.384232 125.366310,112.384232 122.346428,112.384232 
	C122.346428,115.666969 122.346428,118.557320 122.346428,121.674683 
	C123.961266,121.799789 125.251579,121.899757 127.463142,121.999702 
M450.176819,201.929733 
	C450.985687,198.915268 451.794556,195.900787 452.716034,192.466705 
	C448.329742,192.466705 445.320892,192.466705 442.430603,192.466705 
	C442.430603,195.834610 442.430603,198.729324 442.430603,201.987045 
	C444.994751,201.987045 447.135498,201.987045 450.176819,201.929733 
z"/>
<path fill="#FFBD59" opacity="1.000000" stroke="none" 
	d="
M232.005508,472.046997 
	C232.005508,468.904907 232.005508,465.762817 232.005508,462.183350 
	C228.733948,462.183350 225.662247,462.183350 222.150681,462.183350 
	C222.150681,458.694061 222.150681,455.622406 222.150681,452.116669 
	C218.654190,452.116669 215.586868,452.116669 212.102997,452.116669 
	C212.102997,438.636505 212.102997,425.588318 212.102997,412.101105 
	C208.635681,412.101105 205.561523,412.101105 202.254181,412.101105 
	C202.254181,398.614868 202.254181,385.571411 202.254181,372.000610 
	C205.249603,372.000610 208.185562,372.000610 211.566132,371.973694 
	C212.010727,371.946777 211.943497,371.962311 211.968460,372.423889 
	C211.993423,375.795410 211.993423,378.705383 211.993423,382.056488 
	C218.976273,382.056488 225.506989,382.056488 232.034286,382.012817 
	C232.030853,381.969116 231.943497,381.962311 231.968460,382.423889 
	C231.993423,385.803528 231.993423,388.721588 231.993423,392.056488 
	C242.327896,392.056488 252.182816,392.056488 262.034271,392.012817 
	C262.030823,391.969147 261.943481,391.962311 261.968445,392.423889 
	C261.993439,395.816956 261.993439,398.748474 261.993439,401.682983 
	C292.282623,401.682983 322.044800,401.682983 351.948975,401.682983 
	C351.948975,398.228790 351.948975,395.090576 352.420593,391.973450 
	C362.548431,391.994537 372.204712,391.994537 381.956818,391.994537 
	C381.956818,388.206726 381.956818,385.082855 382.412476,381.977081 
	C385.896088,382.049500 388.924103,382.103790 391.968628,382.616516 
	C391.985199,402.515625 391.985199,421.956238 391.985199,441.633240 
	C388.355804,441.910980 385.309692,442.144073 382.229889,442.379761 
	C382.033264,445.829315 381.867218,448.742737 381.669891,452.204712 
	C374.901337,452.204712 368.653748,452.204712 362.299011,452.204712 
	C362.067474,455.697601 361.874237,458.613007 361.644257,462.082428 
	C351.699066,462.082428 342.124451,462.082428 332.335449,462.082428 
	C332.068420,465.687103 331.843262,468.726410 331.578705,472.297607 
	C318.125153,472.297607 305.217560,472.297607 291.952118,472.297607 
	C291.952118,475.869080 291.952118,478.855499 291.491211,481.911957 
	C281.340942,481.969177 271.651611,481.956360 261.965729,481.987183 
	C261.969177,482.030853 262.056519,482.037689 262.031555,481.576111 
	C262.006561,478.196472 262.006561,475.278412 262.006561,471.943512 
	C251.672104,471.943512 241.817184,471.943512 231.954544,471.977112 
	C231.946808,472.010742 232.005508,472.046997 232.005508,472.046997 
z"/>
<path fill="#FFF6D1" opacity="1.000000" stroke="none" 
	d="
M22.055244,292.021759 
	C22.055244,288.875275 22.055244,285.728790 22.055244,282.188110 
	C18.742922,282.188110 15.658084,282.188110 12.289530,282.188110 
	C12.289530,272.061035 12.289530,262.322968 12.289530,252.177124 
	C15.284074,252.177124 18.360756,252.177124 21.833218,252.177124 
	C21.833218,248.712708 21.833218,245.632233 21.833218,242.149200 
	C28.630470,242.149200 35.041702,242.149200 41.849770,242.149200 
	C41.849770,238.690399 41.849770,235.606995 41.849770,232.133362 
	C51.981880,232.133362 61.725189,232.133362 71.864288,232.133362 
	C71.864288,228.673386 71.864288,225.594589 71.864288,222.262207 
	C101.992149,222.262207 131.719070,222.262207 161.849258,222.262207 
	C161.849258,225.309296 161.849258,228.392563 161.849258,231.866196 
	C171.981400,231.866196 181.724731,231.866196 191.867188,231.866196 
	C191.867188,235.326599 191.867188,238.406479 191.867188,242.013428 
	C195.190414,242.013428 198.130493,242.013428 201.531143,242.547058 
	C201.991714,249.180969 201.991714,255.281265 201.991714,261.602478 
	C198.347107,261.904175 195.314377,262.155182 192.239761,262.409668 
	C192.138580,264.099823 192.047943,265.250854 192.004410,266.403717 
	C191.817612,271.351044 193.495422,278.075073 190.938354,280.739594 
	C188.455338,283.326904 181.623932,282.041443 176.717407,281.905060 
	C172.979431,281.801147 171.416336,282.984436 171.999832,286.713165 
	C172.632019,290.753174 171.124695,292.647308 166.856461,292.033417 
	C165.390198,291.822540 163.868103,292.000000 162.371506,292.000000 
	C153.053116,292.000031 153.054291,292.000183 151.668365,300.994324 
	C151.647415,301.130280 151.463531,301.241150 150.679764,302.131958 
	C141.693878,302.131958 132.009064,302.131958 121.978371,302.131958 
	C121.978371,305.872589 121.978371,308.853821 121.516525,311.910950 
	C104.696983,311.964722 88.339294,311.942596 71.983276,311.967773 
	C71.984962,312.015045 72.079506,312.018402 72.042984,311.558258 
	C72.006462,308.178162 72.006462,305.258240 72.006462,301.920502 
	C61.702049,301.920502 51.841824,301.920502 41.983299,301.967773 
	C41.984997,302.015015 42.079506,302.018402 42.042984,301.558258 
	C42.006462,298.185760 42.006462,295.273438 42.006462,291.920502 
	C35.052685,291.920502 28.517143,291.920502 21.977856,291.961914 
	C21.974110,292.003357 22.055244,292.021759 22.055244,292.021759 
z"/>
<path fill="#FFF6D1" opacity="1.000000" stroke="none" 
	d="
M211.801331,292.083984 
	C218.409927,292.083984 225.018509,292.083984 231.846497,292.083984 
	C231.846497,288.637817 231.846497,285.687225 231.846497,282.167816 
	C241.902557,282.167816 251.758591,282.167816 261.998199,282.167816 
	C261.998199,278.538025 261.998199,275.465485 261.998199,272.201721 
	C292.096405,272.201721 321.796783,272.201721 351.895752,272.201721 
	C351.895752,275.357880 351.895752,278.435181 351.895752,281.893494 
	C362.016571,281.893494 371.750488,281.893494 381.879028,281.893494 
	C381.879028,285.339661 381.879028,288.417389 381.879028,292.013458 
	C385.195618,292.013458 388.133087,292.013458 391.531128,292.547058 
	C391.991730,299.180969 391.991730,305.281311 391.991730,311.602692 
	C388.347137,311.904114 385.314423,312.154968 382.239746,312.409271 
	C382.138550,314.099792 382.047943,315.250854 382.004395,316.403687 
	C381.817627,321.351044 383.495483,328.075073 380.938446,330.739594 
	C378.455444,333.326935 371.623962,332.041443 366.717438,331.905060 
	C362.979462,331.801178 361.416199,332.984314 361.999786,336.713135 
	C362.632080,340.753235 361.124725,342.647217 356.856506,342.033417 
	C355.390228,341.822540 353.868134,342.000000 352.371521,342.000000 
	C343.053101,342.000000 343.054260,342.000183 341.668396,350.994324 
	C341.647461,351.130280 341.463562,351.241150 340.679779,352.131958 
	C331.695068,352.131958 322.008789,352.131958 311.978363,352.131958 
	C311.978363,355.876831 311.978363,358.855927 311.516541,361.910950 
	C294.696991,361.964752 278.339264,361.942627 261.983246,361.967773 
	C261.984924,362.015045 262.079498,362.018402 262.042969,361.558258 
	C262.006439,358.178162 262.006439,355.258240 262.006439,351.920502 
	C251.702026,351.920502 241.841812,351.920502 231.983276,351.967773 
	C231.984970,352.015045 232.079514,352.018402 232.042999,351.558258 
	C232.006470,348.185760 232.006470,345.273438 232.006470,341.920502 
	C225.053680,341.920502 218.517639,341.920502 211.977814,341.961914 
	C211.974014,342.003357 212.055145,342.021759 212.055145,342.021759 
	C212.055145,338.887848 212.055145,335.753937 212.055145,332.247864 
	C208.795807,332.247864 205.724655,332.247864 202.327393,332.247864 
	C202.327393,322.063202 202.327393,312.246613 202.327393,302.043243 
	C205.427399,302.043243 208.491241,302.043243 211.993195,302.043243 
	C211.993195,298.746735 211.993195,295.815033 211.920410,292.445435 
	C211.847610,292.007507 211.801331,292.083984 211.801331,292.083984 
z"/>
<path fill="#FFBD59" opacity="1.000000" stroke="none" 
	d="
M162.000549,342.057495 
	C168.342911,342.044281 174.685287,342.031097 181.505310,342.545746 
	C181.982986,359.181946 181.982986,375.290314 181.982986,391.633850 
	C178.355194,391.911316 175.309113,392.144318 172.228043,392.379974 
	C172.032990,395.833069 171.868347,398.747833 171.699158,401.742828 
	C168.234726,401.946686 165.318604,402.118286 162.289444,402.296539 
	C162.066620,405.697418 161.875641,408.612396 161.648300,412.082275 
	C155.032791,412.082275 148.790558,412.082275 142.334961,412.082275 
	C142.068130,415.687683 141.843201,418.726868 141.578934,422.297760 
	C128.124557,422.297760 115.217232,422.297760 101.952080,422.297760 
	C101.952080,425.869171 101.952080,428.855530 101.491173,431.911957 
	C91.340942,431.969147 81.651619,431.956329 71.965729,431.987183 
	C71.969170,432.030853 72.056503,432.037689 72.031540,431.576111 
	C72.006577,428.196503 72.006577,425.278412 72.006577,421.943512 
	C61.672741,421.943512 51.817516,421.943512 41.954563,421.977112 
	C41.946835,422.010742 42.005543,422.046997 42.005543,422.046997 
	C42.005543,418.904907 42.005543,415.762817 42.005543,412.183350 
	C38.733955,412.183350 35.662254,412.183350 32.150673,412.183350 
	C32.150673,408.694092 32.150673,405.622437 32.150673,402.116699 
	C28.654169,402.116699 25.586847,402.116699 22.102983,402.116699 
	C22.102983,388.636749 22.102983,375.588043 22.102983,362.101105 
	C18.636572,362.101105 15.565845,362.101105 12.254185,362.101105 
	C12.254185,348.614868 12.254185,335.571411 12.254185,322.000610 
	C15.249604,322.000610 18.185577,322.000610 21.566133,321.973694 
	C22.010717,321.946808 21.943499,321.962311 21.968464,322.423889 
	C21.993427,325.795380 21.993427,328.705353 21.993427,332.056488 
	C28.976254,332.056488 35.506981,332.056488 42.034271,332.012817 
	C42.030830,331.969147 41.943497,331.962311 41.968460,332.423889 
	C41.993427,335.803497 41.993427,338.721588 41.993427,342.056488 
	C52.327892,342.056488 62.182796,342.056488 72.034271,342.012817 
	C72.030830,341.969147 71.943497,341.962311 71.968460,342.423889 
	C71.993423,345.817261 71.993423,348.749023 71.993423,351.678680 
	C102.286125,351.678680 132.050888,351.678680 162.043411,351.678680 
	C162.043411,348.218567 162.043411,345.078522 162.053314,341.975677 
	C162.063217,342.012848 162.000549,342.057495 162.000549,342.057495 
z"/>
<path fill="#D1D1D1" opacity="1.000000" stroke="none" 
	d="
M441.931091,262.520447 
	C454.997955,262.067841 468.121185,262.067841 481.670746,262.067841 
	C481.883331,258.637573 482.063934,255.723511 482.276276,252.296951 
	C485.290558,252.124741 488.205688,251.958191 491.695923,251.758789 
	C491.865784,248.782211 492.031952,245.870178 492.231079,242.381256 
	C495.283051,242.154160 498.320862,241.928131 501.921173,241.660233 
	C501.921173,235.205185 501.921173,228.964096 501.921173,222.346268 
	C505.386993,222.122452 508.301147,221.934265 512.025085,221.693787 
	C512.025085,218.659241 512.025085,215.732361 512.046387,212.339935 
	C515.203308,211.874374 518.338989,211.874374 521.900757,211.874374 
	C521.900757,218.676147 521.900757,225.090073 521.900757,231.923187 
	C525.383545,231.923187 528.462402,231.923187 531.958252,231.923187 
	C531.958252,242.084427 531.958252,251.825836 531.958252,261.987366 
	C535.448914,261.987366 538.531250,261.987366 541.792969,261.987366 
	C541.792969,272.028534 541.792969,281.644135 541.792969,291.630371 
	C535.518127,291.630371 529.115479,291.630371 522.278809,291.630371 
	C522.278809,288.809692 522.278809,285.735565 522.278809,282.232056 
	C508.789703,282.232056 495.716949,282.232056 482.218079,282.232056 
	C482.218079,278.753296 482.218079,275.675690 482.218079,272.174072 
	C468.727386,272.174072 455.654388,272.174072 441.987457,272.174072 
	C441.987457,268.840515 441.987457,265.906769 441.931091,262.520447 
z"/>
<path fill="#ABABAB" opacity="1.000000" stroke="none" 
	d="
M22.028851,321.976135 
	C22.046986,318.872589 22.046986,315.739685 22.046986,312.145569 
	C18.686405,312.145569 15.623363,312.145569 12.282421,312.145569 
	C12.282421,305.305603 12.282421,298.924622 12.282421,292.002960 
	C15.265537,292.002960 18.198618,292.002960 21.593472,292.012360 
	C22.055244,292.021759 21.974110,292.003357 21.985794,292.426514 
	C21.997478,295.764709 21.997478,298.679779 21.997478,302.018402 
	C28.998753,302.018402 35.539127,302.018402 42.079506,302.018402 
	C42.079506,302.018402 41.984997,302.015015 41.991238,302.432312 
	C41.997478,305.772034 41.997478,308.694427 41.997478,312.018402 
	C52.348972,312.018402 62.214237,312.018402 72.079506,312.018402 
	C72.079506,312.018402 71.984962,312.015045 71.991226,312.432343 
	C71.997482,315.783203 71.997482,318.716766 71.997482,322.161835 
	C99.025497,322.161835 125.530846,322.161835 152.023956,322.609436 
	C152.011719,325.832825 152.011719,328.608582 152.011719,331.636536 
	C148.367081,331.909210 145.326385,332.136719 142.036148,332.382874 
	C142.036148,335.876160 142.036148,338.857147 141.569794,341.908203 
	C118.050125,341.972961 94.996811,341.967621 71.943497,341.962311 
	C71.943497,341.962311 72.030830,341.969147 72.017990,341.549896 
	C72.005157,338.212372 72.005157,335.294098 72.005157,331.962311 
	C61.653927,331.962311 51.798710,331.962311 41.943497,331.962311 
	C41.943497,331.962311 42.030830,331.969147 42.017998,331.549896 
	C42.005161,328.220490 42.005161,325.310333 42.005161,321.962311 
	C35.005184,321.962311 28.474342,321.962311 21.943499,321.962311 
	C21.943499,321.962311 22.010717,321.946808 22.028851,321.976135 
z"/>
<path fill="#ABABAB" opacity="1.000000" stroke="none" 
	d="
M212.028854,371.976135 
	C212.046982,368.872620 212.046982,365.739716 212.046982,362.145569 
	C208.691452,362.145569 205.620331,362.145569 202.282425,362.145569 
	C202.282425,355.305634 202.282425,348.924652 202.282425,342.002960 
	C205.265488,342.002960 208.198547,342.002960 211.593384,342.012360 
	C212.055145,342.021759 211.974014,342.003357 211.985748,342.426514 
	C211.997498,345.764709 211.997498,348.679810 211.997498,352.018402 
	C218.998550,352.018402 225.539032,352.018402 232.079514,352.018402 
	C232.079514,352.018402 231.984970,352.015045 231.991241,352.432343 
	C231.997498,355.772034 231.997498,358.694427 231.997498,362.018402 
	C242.348969,362.018402 252.214233,362.018402 262.079498,362.018402 
	C262.079498,362.018402 261.984924,362.015045 261.991211,362.432343 
	C261.997528,365.783234 261.997528,368.716827 261.997528,372.161682 
	C289.025940,372.161682 315.531647,372.161682 342.025085,372.609070 
	C342.012787,375.832336 342.012787,378.608185 342.012787,381.636017 
	C338.367279,381.909058 335.326691,382.136810 332.037323,382.383209 
	C332.037323,385.874756 332.037323,388.856506 331.570984,391.908295 
	C308.050903,391.972961 284.997192,391.967621 261.943481,391.962311 
	C261.943481,391.962311 262.030823,391.969147 262.018005,391.549866 
	C262.005157,388.212341 262.005157,385.294067 262.005157,381.962311 
	C251.654419,381.962311 241.798965,381.962311 231.943497,381.962311 
	C231.943497,381.962311 232.030853,381.969116 232.018005,381.549866 
	C232.005157,378.220490 232.005157,375.310333 232.005157,371.962311 
	C225.005188,371.962311 218.474335,371.962311 211.943497,371.962311 
	C211.943497,371.962311 212.010727,371.946777 212.028854,371.976135 
z"/>
<path fill="#C29044" opacity="1.000000" stroke="none" 
	d="
M291.952118,481.841919 
	C291.952118,478.855499 291.952118,475.869080 291.952118,472.297607 
	C305.217560,472.297607 318.125153,472.297607 331.578705,472.297607 
	C331.843262,468.726410 332.068420,465.687103 332.335449,462.082428 
	C342.124451,462.082428 351.699066,462.082428 361.644257,462.082428 
	C361.874237,458.613007 362.067474,455.697601 362.299011,452.204712 
	C368.653748,452.204712 374.901337,452.204712 381.669891,452.204712 
	C381.867218,448.742737 382.033264,445.829315 382.229889,442.379761 
	C385.309692,442.144073 388.355804,441.910980 391.985199,441.633240 
	C391.985199,421.956238 391.985199,402.515625 392.426697,382.551086 
	C395.868591,382.027161 398.868958,382.027161 402.036865,382.027161 
	C402.036865,378.126801 402.036865,375.043427 402.028442,371.986359 
	C402.019989,372.012665 401.979004,372.049744 401.979004,372.049744 
	C405.118896,372.049744 408.258789,372.049744 411.697815,372.049744 
	C411.697815,385.382996 411.697815,398.443085 411.697815,411.853882 
	C408.613770,411.853882 405.671478,411.853882 402.197266,411.853882 
	C402.197266,425.252136 402.197266,438.318237 402.197266,451.908142 
	C398.622833,451.908142 395.549286,451.908142 392.152466,451.908142 
	C392.152466,455.370667 392.152466,458.313293 392.152466,461.784485 
	C388.759033,461.784485 385.693542,461.784485 381.991516,461.784485 
	C381.991516,465.221985 381.991516,468.161469 381.989471,471.540649 
	C381.987427,471.980347 382.039948,471.963165 381.568970,471.978516 
	C371.460815,471.993835 361.823669,471.993835 351.986847,471.993835 
	C351.986847,475.833954 351.986847,478.951324 351.988037,482.028992 
	C351.989258,481.989258 352.068726,481.986877 351.595764,481.992371 
	C331.399231,481.945862 311.675659,481.893890 291.952118,481.841919 
z"/>
<path fill="#ABABAB" opacity="1.000000" stroke="none" 
	d="
M142.037369,461.838318 
	C118.899635,461.838318 95.761894,461.838318 72.141899,461.838318 
	C72.141899,458.677704 72.141899,455.600922 72.141899,452.059021 
	C61.933887,452.059021 52.194866,452.059021 42.162228,452.059021 
	C42.162228,448.637299 42.162228,445.690643 42.162228,442.266113 
	C38.808800,442.266113 35.736752,442.266113 32.332657,442.266113 
	C32.332657,435.399597 32.332657,428.999603 32.332657,422.006409 
	C35.217548,422.006409 38.154346,422.006409 41.548344,422.026703 
	C42.005543,422.046997 41.946835,422.010742 41.970837,422.440063 
	C41.994839,425.787628 41.994839,428.705902 41.994839,432.037689 
	C52.346077,432.037689 62.201290,432.037689 72.056503,432.037689 
	C72.056503,432.037689 71.969170,432.030853 71.982010,432.450104 
	C71.994843,435.800262 71.994843,438.731171 71.994843,442.161835 
	C99.033981,442.161835 125.535088,442.161835 152.023956,442.609436 
	C152.011719,445.832825 152.011719,448.608582 152.011719,451.636475 
	C148.367142,451.909180 145.326553,452.136658 142.037369,452.382782 
	C142.037369,455.878204 142.037369,458.858276 142.037369,461.838318 
z"/>
<path fill="#ABABAB" opacity="1.000000" stroke="none" 
	d="
M332.037354,511.838318 
	C308.899597,511.838318 285.761871,511.838318 262.141968,511.838318 
	C262.141968,508.676880 262.141968,505.604950 262.141968,502.059082 
	C251.934845,502.059082 242.194290,502.059082 232.162338,502.059082 
	C232.162338,498.637390 232.162338,495.690735 232.162338,492.266174 
	C228.808899,492.266174 225.736847,492.266174 222.332703,492.266174 
	C222.332703,485.399658 222.332703,478.999664 222.332703,472.006409 
	C225.217484,472.006409 228.154297,472.006409 231.548309,472.026703 
	C232.005508,472.046997 231.946808,472.010742 231.970825,472.440063 
	C231.994843,475.787628 231.994843,478.705902 231.994843,482.037689 
	C242.345459,482.037689 252.200989,482.037689 262.056519,482.037689 
	C262.056519,482.037689 261.969177,482.030853 261.981995,482.450134 
	C261.994843,485.800293 261.994843,488.731201 261.994843,492.161835 
	C289.033997,492.161835 315.535065,492.161835 342.023926,492.609436 
	C342.011688,495.832825 342.011688,498.608612 342.011688,501.636810 
	C338.367188,501.909271 335.326599,502.136597 332.037354,502.382507 
	C332.037354,505.878204 332.037354,508.858276 332.037354,511.838318 
z"/>
<path fill="#D1D1D1" opacity="1.000000" stroke="none" 
	d="
M511.911041,171.581207 
	C508.853729,172.038437 505.869080,172.038437 502.149963,172.038437 
	C502.149963,155.337753 502.149963,138.989075 502.149963,122.332870 
	C498.527039,122.101379 495.613342,121.915199 492.135773,121.692993 
	C492.135773,115.264252 492.135773,109.028069 492.135773,101.974800 
	C488.654205,101.974800 485.730011,101.974800 482.340149,101.953568 
	C481.874451,98.799049 481.874451,95.665771 481.874451,92.113678 
	C488.660706,92.113678 495.069550,92.113678 501.895782,92.113678 
	C501.895782,88.641708 501.895782,85.566200 501.895782,82.251602 
	C508.715271,82.251602 515.111206,82.251602 521.754883,82.251602 
	C521.754883,108.719650 521.754883,135.091141 521.754883,161.891266 
	C518.646729,161.891266 515.570190,161.891266 511.983704,161.891266 
	C511.983704,165.239761 511.983704,168.181885 511.911041,171.581207 
z"/>
<path fill="#E3DBBA" opacity="1.000000" stroke="none" 
	d="
M121.978371,311.835022 
	C121.978371,308.853821 121.978371,305.872589 121.978371,302.131958 
	C132.009064,302.131958 141.693878,302.131958 150.679764,302.131958 
	C151.463531,301.241150 151.647415,301.130280 151.668365,300.994324 
	C153.054291,292.000183 153.053116,292.000031 162.371506,292.000000 
	C163.868103,292.000000 165.390198,291.822540 166.856461,292.033417 
	C171.124695,292.647308 172.632019,290.753174 171.999832,286.713165 
	C171.416336,282.984436 172.979431,281.801147 176.717407,281.905060 
	C181.623932,282.041443 188.455338,283.326904 190.938354,280.739594 
	C193.495422,278.075073 191.817612,271.351044 192.004410,266.403717 
	C192.047943,265.250854 192.138580,264.099823 192.239761,262.409668 
	C195.314377,262.155182 198.347107,261.904175 201.991714,261.602478 
	C201.991714,255.281265 201.991714,249.180969 201.984222,242.622772 
	C205.119385,242.164856 208.262024,242.164856 211.826904,242.164856 
	C211.826904,245.276459 211.826904,248.356155 211.826904,251.852264 
	C215.306717,251.852264 218.386002,251.852264 221.728745,251.852264 
	C221.728745,262.007721 221.728745,271.743073 221.728745,281.909241 
	C218.629990,281.909241 215.549881,281.909241 211.982315,281.909241 
	C211.982315,285.265472 211.982315,288.213562 211.891815,291.622803 
	C211.801331,292.083984 211.847610,292.007507 211.882019,291.984283 
	C205.454163,291.961060 198.991898,291.961060 192.108704,291.961060 
	C192.108704,295.353546 192.108704,298.429810 192.108704,301.915161 
	C181.960312,301.915161 172.223587,301.915161 161.996063,301.915161 
	C161.996063,305.257172 161.996063,308.199341 162.007599,311.577881 
	C162.019119,312.014252 162.055664,311.941864 161.584137,311.968140 
	C148.067856,311.941254 135.023117,311.888153 121.978371,311.835022 
z"/>
<path fill="#C29044" opacity="1.000000" stroke="none" 
	d="
M101.952080,431.841919 
	C101.952080,428.855530 101.952080,425.869171 101.952080,422.297760 
	C115.217232,422.297760 128.124557,422.297760 141.578934,422.297760 
	C141.843201,418.726868 142.068130,415.687683 142.334961,412.082275 
	C148.790558,412.082275 155.032791,412.082275 161.648300,412.082275 
	C161.875641,408.612396 162.066620,405.697418 162.289444,402.296539 
	C165.318604,402.118286 168.234726,401.946686 171.699158,401.742828 
	C171.868347,398.747833 172.032990,395.833069 172.228043,392.379974 
	C175.309113,392.144318 178.355194,391.911316 181.982986,391.633850 
	C181.982986,375.290314 181.982986,359.181946 181.965820,342.615540 
	C185.088852,342.157471 188.229050,342.157471 191.991684,342.157471 
	C191.991684,368.555084 191.991684,394.818451 191.989548,421.531097 
	C191.987411,421.980377 192.039932,421.963165 191.568939,421.978516 
	C181.460815,421.993835 171.823685,421.993835 161.986877,421.993835 
	C161.986877,425.833954 161.986877,428.951324 161.988098,432.028992 
	C161.989304,431.989288 162.068726,431.986877 161.595749,431.992371 
	C141.399216,431.945862 121.675644,431.893890 101.952080,431.841919 
z"/>
<path fill="#E3DBBA" opacity="1.000000" stroke="none" 
	d="
M311.978363,361.835022 
	C311.978363,358.855927 311.978363,355.876831 311.978363,352.131958 
	C322.008789,352.131958 331.695068,352.131958 340.679779,352.131958 
	C341.463562,351.241150 341.647461,351.130280 341.668396,350.994324 
	C343.054260,342.000183 343.053101,342.000000 352.371521,342.000000 
	C353.868134,342.000000 355.390228,341.822540 356.856506,342.033417 
	C361.124725,342.647217 362.632080,340.753235 361.999786,336.713135 
	C361.416199,332.984314 362.979462,331.801178 366.717438,331.905060 
	C371.623962,332.041443 378.455444,333.326935 380.938446,330.739594 
	C383.495483,328.075073 381.817627,321.351044 382.004395,316.403687 
	C382.047943,315.250854 382.138550,314.099792 382.239746,312.409271 
	C385.314423,312.154968 388.347137,311.904114 391.991730,311.602692 
	C391.991730,305.281311 391.991730,299.180969 391.984253,292.622742 
	C395.117279,292.164856 398.257843,292.164856 401.818359,292.164856 
	C401.818359,295.267670 401.818359,298.345673 401.818359,301.837646 
	C405.298706,301.837646 408.373901,301.837646 411.720428,301.837646 
	C411.720428,311.983002 411.720428,321.712524 411.720428,331.871216 
	C408.666992,331.871216 405.590820,331.871216 401.994751,331.871216 
	C401.994751,335.215546 401.994751,338.155396 402.006805,341.548828 
	C402.018860,342.002380 402.013550,341.928986 401.545166,341.961060 
	C394.742157,341.993134 388.407593,341.993134 382.046234,341.993134 
	C382.046234,345.811554 382.046234,348.930511 381.575134,352.027100 
	C371.439056,352.004791 361.774109,352.004791 351.941833,352.004791 
	C351.941833,355.797241 351.941833,358.926453 351.978058,362.037415 
	C352.014282,362.019196 352.069519,361.959808 351.596802,361.977966 
	C338.075500,361.942413 325.026947,361.888702 311.978363,361.835022 
z"/>
<path fill="#D1D1D1" opacity="1.000000" stroke="none" 
	d="
M142.498444,461.911194 
	C142.037369,458.858276 142.037369,455.878204 142.037369,452.382782 
	C145.326553,452.136658 148.367142,451.909180 152.011719,451.636475 
	C152.011719,448.608582 152.011719,445.832825 152.476288,442.536652 
	C155.824539,442.016266 158.708252,442.016266 162.068726,442.016266 
	C162.068726,438.402527 162.068726,435.194702 162.068726,431.986877 
	C162.068726,431.986877 161.989304,431.989288 162.456421,431.998047 
	C169.262482,432.055634 175.601456,432.104492 181.961243,432.595184 
	C181.966553,435.998962 181.951035,438.960876 181.484406,441.950897 
	C178.127579,441.978973 175.221878,441.978973 171.961349,441.978973 
	C171.961349,445.879059 171.961349,448.858765 171.961349,451.838470 
	C168.828018,451.838470 165.694687,451.838470 162.146667,451.838470 
	C162.146667,455.301575 162.146667,458.379059 162.146667,461.984100 
	C155.478638,461.984100 149.219086,461.984100 142.498444,461.911194 
z"/>
<path fill="#D1D1D1" opacity="1.000000" stroke="none" 
	d="
M332.498444,511.911194 
	C332.037354,508.858276 332.037354,505.878204 332.037354,502.382507 
	C335.326599,502.136597 338.367188,501.909271 342.011688,501.636810 
	C342.011688,498.608612 342.011688,495.832825 342.476257,492.536652 
	C345.824524,492.016266 348.708221,492.016266 352.068726,492.016266 
	C352.068726,488.402557 352.068726,485.194702 352.068726,481.986877 
	C352.068726,481.986877 351.989258,481.989258 352.456421,481.997986 
	C359.262512,482.055603 365.601501,482.104462 371.961273,482.595154 
	C371.966553,485.998932 371.951019,488.960876 371.484375,491.950867 
	C368.127533,491.978973 365.221832,491.978973 361.961304,491.978973 
	C361.961304,495.879028 361.961304,498.858734 361.961304,501.838470 
	C358.827972,501.838470 355.694641,501.838470 352.146637,501.838470 
	C352.146637,505.301575 352.146637,508.379059 352.146637,511.984100 
	C345.478638,511.984100 339.219086,511.984100 332.498444,511.911194 
z"/>
<path fill="#D1D1D1" opacity="1.000000" stroke="none" 
	d="
M142.036148,341.838165 
	C142.036148,338.857147 142.036148,335.876160 142.036148,332.382874 
	C145.326385,332.136719 148.367081,331.909210 152.011719,331.636536 
	C152.011719,328.608582 152.011719,325.832825 152.476303,322.536652 
	C155.832230,322.016266 158.723557,322.016266 162.055664,322.016266 
	C162.055664,318.378510 162.055664,315.160187 162.055664,311.941864 
	C162.055664,311.941864 162.019119,312.014252 161.989624,312.041931 
	C168.319885,312.051697 174.679626,312.033783 181.512909,312.535950 
	C181.986435,315.831909 181.986435,318.607727 181.986435,321.637573 
	C178.367355,321.908813 175.326721,322.136719 171.961533,322.388916 
	C171.961533,325.877991 171.961533,328.858215 171.961533,331.838440 
	C168.875595,331.838440 165.789642,331.838440 161.999451,331.838440 
	C161.999451,335.103149 161.999451,338.117218 162.000000,341.594360 
	C162.000549,342.057495 162.063217,342.012848 161.582855,342.003418 
	C154.747055,341.942047 148.391602,341.890106 142.036148,341.838165 
z"/>
<path fill="#949494" opacity="1.000000" stroke="none" 
	d="
M401.982697,342.009094 
	C405.077362,342.015839 408.208221,342.015839 411.668579,342.015839 
	C411.668579,348.613403 411.668579,354.981049 411.668579,361.859314 
	C408.667633,361.859314 405.608704,361.859314 401.995819,361.859314 
	C401.995819,365.269196 401.995819,368.196747 401.987427,371.587036 
	C401.979004,372.049744 402.019989,372.012665 401.571045,372.002991 
	C398.072327,371.940857 395.022583,371.888397 391.981628,371.378510 
	C391.984589,364.668732 391.978760,358.416382 392.429169,352.095673 
	C395.769043,352.027313 398.652710,352.027313 402.013550,352.027313 
	C402.013550,348.349701 402.013550,345.139343 402.013550,341.928986 
	C402.013550,341.928986 402.018860,342.002380 401.982697,342.009094 
z"/>
<path fill="#949494" opacity="1.000000" stroke="none" 
	d="
M181.935516,441.922821 
	C181.951035,438.960876 181.966553,435.998962 182.420273,432.531372 
	C185.862778,432.025696 188.867096,432.025696 192.039932,432.025696 
	C192.039932,428.134399 192.039932,425.048767 192.039932,421.963165 
	C192.039932,421.963165 191.987411,421.980377 191.968796,422.000641 
	C195.077286,422.020905 198.204376,422.020905 201.664001,422.020905 
	C201.664001,428.591522 201.664001,434.950958 201.664001,441.814880 
	C198.707779,441.814880 195.661621,441.814880 192.125458,441.814880 
	C192.125458,445.346497 192.125458,448.393951 192.125458,451.972687 
	C188.729721,451.972687 185.807587,451.972687 182.437836,451.460022 
	C181.971970,447.939209 181.953751,444.931000 181.935516,441.922821 
z"/>
<path fill="#949494" opacity="1.000000" stroke="none" 
	d="
M371.935486,491.922791 
	C371.951019,488.960876 371.966553,485.998932 372.420288,482.531372 
	C375.862823,482.025726 378.867126,482.025726 382.039948,482.025726 
	C382.039948,478.134369 382.039948,475.048767 382.039948,471.963165 
	C382.039948,471.963165 381.987427,471.980347 381.968811,472.000610 
	C385.076721,472.020874 388.203217,472.020874 391.664032,472.020874 
	C391.664032,478.591583 391.664032,484.951019 391.664032,491.814972 
	C388.707764,491.814972 385.661591,491.814972 382.125427,491.814972 
	C382.125427,495.346558 382.125427,498.394012 382.125427,501.972687 
	C378.729675,501.972687 375.807526,501.972687 372.437744,501.460022 
	C371.971924,497.939178 371.953705,494.931000 371.935486,491.922791 
z"/>
<path fill="#ABABAB" opacity="1.000000" stroke="none" 
	d="
M172.427917,331.908386 
	C171.961533,328.858215 171.961533,325.877991 171.961533,322.388916 
	C175.326721,322.136719 178.367355,321.908813 181.986435,321.637573 
	C181.986435,318.607727 181.986435,315.831909 181.973816,312.608765 
	C185.100769,312.161499 188.240341,312.161499 191.689529,312.161499 
	C191.689529,318.632538 191.689529,325.027618 191.689529,331.978302 
	C185.420563,331.978302 179.157425,331.978302 172.427917,331.908386 
z"/>
<path fill="#ABABAB" opacity="1.000000" stroke="none" 
	d="
M181.484406,441.950897 
	C181.953751,444.931000 181.971970,447.939209 181.981537,451.391663 
	C178.936737,451.883240 175.900604,451.930511 172.412903,451.908112 
	C171.961349,448.858765 171.961349,445.879059 171.961349,441.978973 
	C175.221878,441.978973 178.127579,441.978973 181.484406,441.950897 
z"/>
<path fill="#FFBDF6" opacity="1.000000" stroke="none" 
	d="
M82.089905,122.435516 
	C85.145241,121.985352 88.124741,121.985352 91.550858,121.985352 
	C91.550858,125.342789 91.550858,128.355789 91.550858,132.005676 
	C88.610512,132.005676 85.835442,132.005676 82.613052,132.010254 
	C82.115181,128.971786 82.064621,125.928734 82.089905,122.435516 
z"/>
<path fill="#ABABAB" opacity="1.000000" stroke="none" 
	d="
M371.484375,491.950867 
	C371.953705,494.931000 371.971924,497.939178 371.981506,501.391663 
	C368.936707,501.883209 365.900574,501.930481 362.412872,501.908081 
	C361.961304,498.858734 361.961304,495.879028 361.961304,491.978973 
	C365.221832,491.978973 368.127533,491.978973 371.484375,491.950867 
z"/>
<path fill="#FFFFFF" opacity="1.000000" stroke="none" 
	d="
M447.947754,362.000000 
	C445.847748,362.000000 444.219604,362.000000 442.296326,362.000000 
	C442.296326,358.780884 442.296326,355.728149 442.296326,352.335693 
	C445.261780,352.335693 448.423828,352.335693 452.808350,352.335693 
	C449.364075,355.197235 456.567383,361.134613 447.947754,362.000000 
z"/>
<path fill="#FFBDF6" opacity="1.000000" stroke="none" 
	d="
M402.090088,203.399780 
	C403.124878,202.819443 404.109619,202.427811 405.038055,202.533035 
	C407.206360,202.778778 410.007111,202.595673 411.290039,203.863220 
	C412.306732,204.867783 412.249756,208.504135 411.212372,209.634064 
	C410.034149,210.917389 407.239746,210.739304 405.136047,211.132996 
	C404.674164,211.219452 404.162140,211.038132 403.289856,210.951355 
	C402.609161,208.553146 402.311798,206.183685 402.090088,203.399780 
z"/>
<path fill="#000000" opacity="1.000000" stroke="none" 
	d="
M225.163208,132.000122 
	C230.946732,132.000000 236.243500,132.000000 241.766815,132.000000 
	C241.766815,138.727921 241.766815,145.132050 241.766815,151.769180 
	C235.267120,151.769180 228.863037,151.769180 222.001541,151.769180 
	C222.001541,145.894913 221.897324,140.110489 222.120438,134.338715 
	C222.151794,133.527512 223.784836,132.778214 225.163208,132.000122 
z"/>
<path fill="#FFBDF6" opacity="1.000000" stroke="none" 
	d="
M111.999847,132.000000 
	C115.432838,132.000000 118.379234,132.000000 121.658554,132.000000 
	C121.658554,138.794159 121.658554,145.011398 121.658554,151.616638 
	C115.293465,151.616638 109.075745,151.616638 102.425308,151.616638 
	C102.425308,145.384247 102.425308,139.163345 102.425308,132.000000 
	C105.378609,132.000000 108.445923,132.000000 111.999847,132.000000 
z"/>
<path fill="#000000" opacity="1.000000" stroke="none" 
	d="
M362.402832,182.393982 
	C369.035278,182.056305 375.322693,182.056305 381.798798,182.056305 
	C381.798798,188.800537 381.798798,195.204880 381.798798,201.795654 
	C375.192902,201.795654 368.788544,201.795654 362.057770,201.795654 
	C362.057770,195.309280 362.057770,189.020462 362.402832,182.393982 
z"/>
<path fill="#FFBDF6" opacity="1.000000" stroke="none" 
	d="
M431.023621,212.000000 
	C434.793549,212.000000 438.073517,212.000000 441.666931,212.000000 
	C441.666931,218.811600 441.666931,225.028625 441.666931,231.624374 
	C435.277832,231.624374 429.060516,231.624374 422.418152,231.624374 
	C422.418152,225.369293 422.418152,219.149277 422.418152,212.000000 
	C425.062592,212.000000 427.798126,212.000000 431.023621,212.000000 
z"/>
<path fill="#000000" opacity="1.000000" stroke="none" 
	d="
M422.072998,172.062393 
	C422.072998,168.922623 422.072998,165.782852 422.072998,162.321625 
	C431.923981,162.321625 441.748047,162.321625 451.994263,162.321625 
	C451.994263,165.275513 451.994263,168.208649 451.994019,171.570801 
	C451.993744,171.999817 452.062592,171.926605 452.062592,171.926605 
	C442.333191,171.949188 432.603790,171.971771 422.437073,171.993927 
	C421.999756,171.993484 422.072998,172.062393 422.072998,172.062393 
z"/>
<path fill="#000000" opacity="1.000000" stroke="none" 
	d="
M471.937744,202.073105 
	C475.078613,202.073105 478.219482,202.073105 481.680115,202.073105 
	C481.680115,208.610428 481.680115,215.118042 481.680115,221.812866 
	C478.527252,221.812866 475.468384,221.812866 472.005646,221.812866 
	C472.005646,215.381119 472.005646,209.127686 472.006104,202.437073 
	C472.006592,201.999878 471.937744,202.073105 471.937744,202.073105 
z"/>
<path fill="#000000" opacity="1.000000" stroke="none" 
	d="
M151.956787,122.034500 
	C155.063690,122.068863 158.207245,122.068863 161.675262,122.068863 
	C161.675262,128.601730 161.675262,135.111038 161.675262,141.812485 
	C158.531509,141.812485 155.471939,141.812485 152.004486,141.812485 
	C152.004486,135.382050 152.004486,129.126724 152.033386,122.399170 
	C152.062286,121.926926 151.993454,122.000145 151.956787,122.034500 
z"/>
<path fill="#000000" opacity="1.000000" stroke="none" 
	d="
M291.874512,171.932327 
	C285.432831,171.932327 278.991150,171.932327 271.991364,171.932327 
	C271.991364,168.862259 271.991364,165.944504 271.904755,162.612320 
	C271.818146,162.197876 271.744598,162.280182 271.744598,162.280182 
	C278.201050,162.188248 284.657501,162.096298 291.555725,162.001770 
	C291.997498,161.999176 291.937592,161.937607 291.965668,162.393250 
	C291.953979,165.876694 291.914246,168.904510 291.874512,171.932327 
z"/>
<path fill="#000000" opacity="1.000000" stroke="none" 
	d="
M302.064484,172.146179 
	C308.414429,172.098892 314.764374,172.051620 321.555908,172.001755 
	C321.997498,171.999176 321.937592,171.937607 321.965668,172.393250 
	C321.953979,175.876694 321.914246,178.904510 321.874512,181.932327 
	C315.425201,181.932327 308.975922,181.932327 302.009491,181.932327 
	C302.009491,178.832901 302.009491,175.907089 302.024506,172.518005 
	C302.039520,172.054718 302.064484,172.146179 302.064484,172.146179 
z"/>
<path fill="#000000" opacity="1.000000" stroke="none" 
	d="
M472.043274,201.965515 
	C468.845795,201.931168 465.611664,201.931168 461.991577,201.931168 
	C461.991577,195.425400 461.991577,189.234070 461.905243,182.620056 
	C461.818909,182.197372 461.745636,182.279816 461.745636,182.279816 
	C465.016937,182.279816 468.288269,182.279816 471.995514,182.279816 
	C471.995514,188.597656 471.995514,194.863129 471.966614,201.600861 
	C471.937744,202.073105 472.006592,201.999878 472.043274,201.965515 
z"/>
<path fill="#FFBDF6" opacity="1.000000" stroke="none" 
	d="
M127.002518,121.999710 
	C125.251579,121.899757 123.961266,121.799789 122.346428,121.674683 
	C122.346428,118.557320 122.346428,115.666969 122.346428,112.384232 
	C125.366310,112.384232 128.259109,112.384232 131.578842,112.384232 
	C131.578842,115.287010 131.578842,118.175705 131.578842,121.609024 
	C130.297165,121.730690 128.880157,121.865196 127.002518,121.999710 
z"/>
<path fill="#FFBDF6" opacity="1.000000" stroke="none" 
	d="
M101.924538,101.957596 
	C102.538681,101.963158 103.196571,101.988998 103.854614,101.993843 
	C112.590462,102.058083 112.590469,102.057343 111.690651,111.037201 
	C111.455612,111.260391 111.242783,111.642204 110.979561,111.680855 
	C102.046448,112.992218 102.045753,112.987511 101.963547,102.346527 
	C101.947296,101.880478 101.968361,101.968117 101.924538,101.957596 
z"/>
<path fill="#D1D1D1" opacity="1.000000" stroke="none" 
	d="
M262.068787,152.123901 
	C262.068787,148.991409 262.068787,145.858902 262.068787,142.369080 
	C265.388062,142.369080 268.290131,142.369080 271.975800,142.369080 
	C271.975800,145.338760 271.975800,148.266190 271.508606,151.603058 
	C268.050568,152.049637 265.059662,152.086777 262.068787,152.123901 
z"/>
<path fill="#000000" opacity="1.000000" stroke="none" 
	d="
M262.036865,152.575256 
	C265.059662,152.086777 268.050568,152.049637 271.486389,152.068314 
	C271.947693,155.190628 271.963989,158.257141 271.862457,161.801910 
	C271.744598,162.280182 271.818146,162.197876 271.848877,162.163025 
	C268.762878,162.128174 265.646149,162.128174 262.004944,162.128174 
	C262.004944,158.866318 262.004944,155.946457 262.036865,152.575256 
z"/>
<path fill="#000000" opacity="1.000000" stroke="none" 
	d="
M292.027069,162.030304 
	C292.056641,158.947937 292.056641,155.834442 292.056641,152.360474 
	C295.205261,152.360474 298.357483,152.360474 301.995148,152.360474 
	C301.995148,155.178146 301.995148,158.074905 301.515259,161.479553 
	C298.002747,161.970840 294.970184,161.954224 291.937592,161.937607 
	C291.937592,161.937607 291.997498,161.999176 292.027069,162.030304 
z"/>
<path fill="#D1D1D1" opacity="1.000000" stroke="none" 
	d="
M291.965668,162.393250 
	C294.970184,161.954224 298.002747,161.970840 301.483826,161.930984 
	C301.962372,164.986710 301.992462,168.098892 302.043518,171.678635 
	C302.064484,172.146179 302.039520,172.054718 302.085602,172.066101 
	C299.022583,172.043259 295.913513,172.009033 292.339478,171.953583 
	C291.914246,168.904510 291.953979,165.876694 291.965668,162.393250 
z"/>
<path fill="#000000" opacity="1.000000" stroke="none" 
	d="
M322.027069,172.030304 
	C322.056641,168.947937 322.056641,165.834442 322.056641,162.360474 
	C325.205261,162.360474 328.357483,162.360474 331.995148,162.360474 
	C331.995148,165.178146 331.995148,168.074905 331.515259,171.479553 
	C328.002747,171.970840 324.970184,171.954224 321.937592,171.937607 
	C321.937592,171.937607 321.997498,171.999176 322.027069,172.030304 
z"/>
<path fill="#D1D1D1" opacity="1.000000" stroke="none" 
	d="
M321.965668,172.393250 
	C324.970184,171.954224 328.002747,171.970840 331.483826,171.930984 
	C331.932281,174.994446 331.932281,178.114380 331.932281,181.974792 
	C328.641479,181.974792 325.723480,181.974792 322.339996,181.953552 
	C321.914246,178.904510 321.953979,175.876694 321.965668,172.393250 
z"/>
<path fill="#000000" opacity="1.000000" stroke="none" 
	d="
M421.965363,171.956818 
	C421.951141,174.962509 421.971283,178.004852 421.979889,181.507660 
	C421.968353,181.968124 421.947296,181.880478 421.947296,181.880478 
	C418.968567,181.923203 415.989868,181.965927 412.604309,182.095001 
	C412.197449,182.181381 412.279877,182.254654 412.279877,182.254654 
	C412.279877,178.982346 412.279877,175.710022 412.279877,172.004578 
	C415.263000,172.004578 418.204010,172.004578 421.609009,172.033478 
	C422.072998,172.062393 421.999756,171.993484 421.965363,171.956818 
z"/>
<path fill="#000000" opacity="1.000000" stroke="none" 
	d="
M451.957092,172.034180 
	C455.059998,172.068558 458.199585,172.068558 461.980530,172.068558 
	C461.980530,175.162170 461.980530,178.233124 461.863098,181.791962 
	C461.745636,182.279816 461.818909,182.197372 461.849670,182.162537 
	C458.802551,182.127686 455.724731,182.127686 452.004578,182.127686 
	C452.004578,178.883453 452.004578,175.868973 452.033569,172.390549 
	C452.062592,171.926605 451.993744,171.999817 451.957092,172.034180 
z"/>
<path fill="#000000" opacity="1.000000" stroke="none" 
	d="
M402.034393,192.042984 
	C402.068756,188.940018 402.068756,185.800385 402.068756,182.019485 
	C405.162201,182.019485 408.233215,182.019485 411.792053,182.137070 
	C412.279877,182.254654 412.197449,182.181381 412.162598,182.150650 
	C412.127777,185.197662 412.127777,188.275421 412.127777,191.995392 
	C408.883484,191.995392 405.869049,191.995392 402.390747,191.966400 
	C401.926819,191.937424 402.000031,192.006317 402.034393,192.042984 
z"/>
<path fill="#FFBDF6" opacity="1.000000" stroke="none" 
	d="
M421.924530,181.957596 
	C422.538666,181.963135 423.196594,181.988937 423.854614,181.993790 
	C432.590485,182.058060 432.590485,182.057343 431.690613,191.037201 
	C431.455597,191.260391 431.242767,191.642197 430.979553,191.680832 
	C422.046417,192.992264 422.045715,192.987549 421.963562,182.346527 
	C421.947296,181.880478 421.968353,181.968124 421.924530,181.957596 
z"/>
<path fill="#FFBDF6" opacity="1.000000" stroke="none" 
	d="
M449.726562,201.958389 
	C447.135498,201.987045 444.994751,201.987045 442.430603,201.987045 
	C442.430603,198.729324 442.430603,195.834610 442.430603,192.466705 
	C445.320892,192.466705 448.329742,192.466705 452.716034,192.466705 
	C451.794556,195.900787 450.985687,198.915268 449.726562,201.958389 
z"/>
<path fill="#000000" opacity="1.000000" stroke="none" 
	d="
M261.968445,392.423889 
	C284.997192,391.967621 308.050903,391.972961 332.031952,391.981201 
	C339.321777,392.004944 345.684265,392.025818 352.022430,392.023010 
	C351.998108,391.999329 351.948975,391.952393 351.948975,391.952393 
	C351.948975,395.090576 351.948975,398.228790 351.948975,401.682983 
	C322.044800,401.682983 292.282623,401.682983 261.993439,401.682983 
	C261.993439,398.748474 261.993439,395.816956 261.968445,392.423889 
z"/>
<path fill="#000000" opacity="1.000000" stroke="none" 
	d="
M351.595764,481.992371 
	C352.068726,485.194702 352.068726,488.402557 352.068726,492.016266 
	C348.708221,492.016266 345.824524,492.016266 342.488495,492.089050 
	C315.535065,492.161835 289.033997,492.161835 261.994843,492.161835 
	C261.994843,488.731201 261.994843,485.800293 261.978577,482.406433 
	C271.651611,481.956360 281.340942,481.969177 291.491211,481.911957 
	C311.675659,481.893890 331.399231,481.945862 351.595764,481.992371 
z"/>
<path fill="#000000" opacity="1.000000" stroke="none" 
	d="
M381.956818,381.958954 
	C381.956818,385.082855 381.956818,388.206726 381.956818,391.994537 
	C372.204712,391.994537 362.548431,391.994537 352.420593,391.973450 
	C351.948975,391.952393 351.998108,391.999329 352.001404,391.560730 
	C352.004669,388.110199 352.004669,385.098236 352.004669,381.838470 
	C355.791870,381.838470 358.876587,381.838470 362.427673,381.908386 
	C369.277008,381.999817 375.659973,382.021362 382.021545,382.021790 
	C382.000153,382.000641 381.956818,381.958954 381.956818,381.958954 
z"/>
<path fill="#000000" opacity="1.000000" stroke="none" 
	d="
M262.031555,481.576111 
	C252.200989,482.037689 242.345459,482.037689 231.994843,482.037689 
	C231.994843,478.705902 231.994843,475.787628 231.978561,472.406433 
	C241.817184,471.943512 251.672104,471.943512 262.006561,471.943512 
	C262.006561,475.278412 262.006561,478.196472 262.031555,481.576111 
z"/>
<path fill="#000000" opacity="1.000000" stroke="none" 
	d="
M231.968460,382.423889 
	C241.798965,381.962311 251.654419,381.962311 262.005157,381.962311 
	C262.005157,385.294067 262.005157,388.212341 262.021423,391.593567 
	C252.182816,392.056488 242.327896,392.056488 231.993423,392.056488 
	C231.993423,388.721588 231.993423,385.803528 231.968460,382.423889 
z"/>
<path fill="#000000" opacity="1.000000" stroke="none" 
	d="
M211.968460,372.423889 
	C218.474335,371.962311 225.005188,371.962311 232.005157,371.962311 
	C232.005157,375.310333 232.005157,378.220490 232.021439,381.593567 
	C225.506989,382.056488 218.976273,382.056488 211.993423,382.056488 
	C211.993423,378.705383 211.993423,375.795410 211.968460,372.423889 
z"/>
<path fill="#000000" opacity="1.000000" stroke="none" 
	d="
M391.972839,371.835938 
	C395.022583,371.888397 398.072327,371.940857 401.579468,371.976685 
	C402.036865,375.043427 402.036865,378.126801 402.036865,382.027161 
	C398.868958,382.027161 395.868591,382.027161 392.410156,382.092621 
	C388.924103,382.103790 385.896088,382.049500 382.412476,381.977081 
	C381.956818,381.958954 382.000153,382.000641 382.003021,381.560059 
	C382.005890,378.117249 382.005890,375.115082 382.005890,371.835968 
	C385.819366,371.835968 388.896088,371.835968 391.972839,371.835938 
z"/>
<path fill="#000000" opacity="1.000000" stroke="none" 
	d="
M161.584137,311.968140 
	C162.055664,315.160187 162.055664,318.378510 162.055664,322.016266 
	C158.723557,322.016266 155.832230,322.016266 152.488541,322.089050 
	C125.530846,322.161835 99.025497,322.161835 71.997482,322.161835 
	C71.997482,318.716766 71.997482,315.783203 71.989540,312.385071 
	C88.339294,311.942596 104.696983,311.964722 121.516525,311.910950 
	C135.023117,311.888153 148.067856,311.941254 161.584137,311.968140 
z"/>
<path fill="#000000" opacity="1.000000" stroke="none" 
	d="
M72.042984,311.558258 
	C62.214237,312.018402 52.348972,312.018402 41.997478,312.018402 
	C41.997478,308.694427 41.997478,305.772034 41.989540,302.385071 
	C51.841824,301.920502 61.702049,301.920502 72.006462,301.920502 
	C72.006462,305.258240 72.006462,308.178162 72.042984,311.558258 
z"/>
<path fill="#000000" opacity="1.000000" stroke="none" 
	d="
M42.042984,301.558258 
	C35.539127,302.018402 28.998753,302.018402 21.997478,302.018402 
	C21.997478,298.679779 21.997478,295.764709 21.989540,292.385071 
	C28.517143,291.920502 35.052685,291.920502 42.006462,291.920502 
	C42.006462,295.273438 42.006462,298.185760 42.042984,301.558258 
z"/>
<path fill="#000000" opacity="1.000000" stroke="none" 
	d="
M311.516541,361.910950 
	C325.026947,361.888702 338.075500,361.942413 351.565430,362.438416 
	C352.006805,365.892334 352.006805,368.903931 352.006805,372.161682 
	C348.206696,372.161682 345.122040,372.161682 342.037354,372.161682 
	C315.531647,372.161682 289.025940,372.161682 261.997528,372.161682 
	C261.997528,368.716827 261.997528,365.783234 261.989563,362.385071 
	C278.339264,361.942627 294.696991,361.964752 311.516541,361.910950 
z"/>
<path fill="#000000" opacity="1.000000" stroke="none" 
	d="
M262.042969,361.558258 
	C252.214233,362.018402 242.348969,362.018402 231.997498,362.018402 
	C231.997498,358.694427 231.997498,355.772034 231.989548,352.385071 
	C241.841812,351.920502 251.702026,351.920502 262.006439,351.920502 
	C262.006439,355.258240 262.006439,358.178162 262.042969,361.558258 
z"/>
<path fill="#000000" opacity="1.000000" stroke="none" 
	d="
M232.042999,351.558258 
	C225.539032,352.018402 218.998550,352.018402 211.997498,352.018402 
	C211.997498,348.679810 211.997498,345.764709 211.989548,342.385071 
	C218.517639,341.920502 225.053680,341.920502 232.006470,341.920502 
	C232.006470,345.273438 232.006470,348.185760 232.042999,351.558258 
z"/>
<path fill="#000000" opacity="1.000000" stroke="none" 
	d="
M141.569794,341.908203 
	C148.391602,341.890106 154.747055,341.942047 161.572968,341.966248 
	C162.043411,345.078522 162.043411,348.218567 162.043411,351.678680 
	C132.050888,351.678680 102.286125,351.678680 71.993423,351.678680 
	C71.993423,348.749023 71.993423,345.817261 71.968460,342.423889 
	C94.996811,341.967621 118.050125,341.972961 141.569794,341.908203 
z"/>
<path fill="#000000" opacity="1.000000" stroke="none" 
	d="
M161.595749,431.992371 
	C162.068726,435.194702 162.068726,438.402527 162.068726,442.016266 
	C158.708252,442.016266 155.824539,442.016266 152.488525,442.089050 
	C125.535088,442.161835 99.033981,442.161835 71.994843,442.161835 
	C71.994843,438.731171 71.994843,435.800262 71.978569,432.406433 
	C81.651619,431.956329 91.340942,431.969147 101.491173,431.911957 
	C121.675644,431.893890 141.399216,431.945862 161.595749,431.992371 
z"/>
<path fill="#000000" opacity="1.000000" stroke="none" 
	d="
M41.968460,332.423889 
	C51.798710,331.962311 61.653927,331.962311 72.005157,331.962311 
	C72.005157,335.294098 72.005157,338.212372 72.021431,341.593567 
	C62.182796,342.056488 52.327892,342.056488 41.993427,342.056488 
	C41.993427,338.721588 41.993427,335.803497 41.968460,332.423889 
z"/>
<path fill="#000000" opacity="1.000000" stroke="none" 
	d="
M72.031540,431.576111 
	C62.201290,432.037689 52.346077,432.037689 41.994839,432.037689 
	C41.994839,428.705902 41.994839,425.787628 41.978565,422.406433 
	C51.817516,421.943512 61.672741,421.943512 72.006577,421.943512 
	C72.006577,425.278412 72.006577,428.196503 72.031540,431.576111 
z"/>
<path fill="#000000" opacity="1.000000" stroke="none" 
	d="
M21.968464,322.423889 
	C28.474342,321.962311 35.005184,321.962311 42.005161,321.962311 
	C42.005161,325.310333 42.005161,328.220490 42.021435,331.593567 
	C35.506981,332.056488 28.976254,332.056488 21.993427,332.056488 
	C21.993427,328.705353 21.993427,325.795380 21.968464,322.423889 
z"/>
<path fill="#D1D1D1" opacity="1.000000" stroke="none" 
	d="
M342.025085,372.609070 
	C345.122040,372.161682 348.206696,372.161682 352.006805,372.161682 
	C352.006805,368.903931 352.006805,365.892334 352.038147,362.420288 
	C352.069519,361.959808 352.014282,362.019196 352.449585,362.012329 
	C359.243652,362.057465 365.602417,362.109467 371.973816,362.608795 
	C371.986420,365.831970 371.986420,368.607788 371.986420,371.637665 
	C368.367340,371.908936 365.326721,372.136871 361.961304,372.389130 
	C361.961304,375.874115 361.961304,378.856293 361.961304,381.838470 
	C358.876587,381.838470 355.791870,381.838470 352.004669,381.838470 
	C352.004669,385.098236 352.004669,388.110199 352.025696,391.584412 
	C345.684265,392.025818 339.321777,392.004944 332.498291,391.911194 
	C332.037323,388.856506 332.037323,385.874756 332.037323,382.383209 
	C335.326691,382.136810 338.367279,381.909058 342.012787,381.636017 
	C342.012787,378.608185 342.012787,375.832336 342.025085,372.609070 
z"/>
<path fill="#000000" opacity="1.000000" stroke="none" 
	d="
M381.568970,471.978516 
	C382.039948,475.048767 382.039948,478.134369 382.039948,482.025726 
	C378.867126,482.025726 375.862823,482.025726 372.399475,482.089539 
	C365.601501,482.104462 359.262512,482.055603 352.455200,482.037720 
	C351.986847,478.951324 351.986847,475.833954 351.986847,471.993835 
	C361.823669,471.993835 371.460815,471.993835 381.568970,471.978516 
z"/>
<path fill="#000000" opacity="1.000000" stroke="none" 
	d="
M191.568939,421.978516 
	C192.039932,425.048767 192.039932,428.134399 192.039932,432.025696 
	C188.867096,432.025696 185.862778,432.025696 182.399445,432.089539 
	C175.601456,432.104492 169.262482,432.055634 162.455200,432.037750 
	C161.986877,428.951324 161.986877,425.833954 161.986877,421.993835 
	C171.823685,421.993835 181.460815,421.993835 191.568939,421.978516 
z"/>
<path fill="#000000" opacity="1.000000" stroke="none" 
	d="
M371.961212,362.161499 
	C365.602417,362.109467 359.243652,362.057465 352.413330,362.030518 
	C351.941833,358.926453 351.941833,355.797241 351.941833,352.004791 
	C361.774109,352.004791 371.439056,352.004791 381.551086,352.002014 
	C381.998169,351.999268 381.949615,351.949585 381.971375,352.411682 
	C381.993103,355.882660 381.993103,358.891571 381.993103,362.161499 
	C378.141785,362.161499 375.051483,362.161499 371.961212,362.161499 
z"/>
<path fill="#000000" opacity="1.000000" stroke="none" 
	d="
M401.545166,341.961060 
	C402.013550,345.139343 402.013550,348.349701 402.013550,352.027313 
	C398.652710,352.027313 395.769043,352.027313 391.980225,352.024841 
	C388.033264,351.998138 384.991455,351.973877 381.949615,351.949585 
	C381.949615,351.949585 381.998169,351.999268 382.022217,352.024353 
	C382.046234,348.930511 382.046234,345.811554 382.046234,341.993134 
	C388.407593,341.993134 394.742157,341.993134 401.545166,341.961060 
z"/>
<path fill="#ABABAB" opacity="1.000000" stroke="none" 
	d="
M381.971375,352.411682 
	C384.991455,351.973877 388.033264,351.998138 391.524048,352.093201 
	C391.978760,358.416382 391.984589,364.668732 391.981628,371.378540 
	C388.896088,371.835968 385.819366,371.835968 382.005890,371.835968 
	C382.005890,375.115082 382.005890,378.117249 382.024414,381.581177 
	C375.659973,382.021362 369.277008,381.999817 362.427673,381.908386 
	C361.961304,378.856293 361.961304,375.874115 361.961304,372.389130 
	C365.326721,372.136871 368.367340,371.908936 371.986420,371.637665 
	C371.986420,368.607788 371.986420,365.831970 371.973816,362.608826 
	C375.051483,362.161499 378.141785,362.161499 381.993103,362.161499 
	C381.993103,358.891571 381.993103,355.882660 381.971375,352.411682 
z"/>
</svg>